<?xml version="1.0" standalone="no"?><!DOCTYPE svg PUBLIC "-//W3C//DTD SVG 1.1//EN" "http://www.w3.org/Graphics/SVG/1.1/DTD/svg11.dtd"><svg t="1747124086894" class="icon" viewBox="0 0 1146 1024" version="1.1" xmlns="http://www.w3.org/2000/svg" p-id="2925" xmlns:xlink="http://www.w3.org/1999/xlink" width="223.828125" height="200"><path d="M226.319349 430.079978C237.004788 247.639028 388.382701 102.399995 573.439971 102.399995c11.315199 0 20.479999 9.1648 20.479999 20.479999s-9.1648 20.479999-20.479999 20.479999c-162.483192 0-295.541745 126.878714-306.160624 286.719985h756.198362C1012.720589 191.11935 815.022039 0 573.439971 0S134.159353 191.11935 123.402234 430.079978h102.917115z" fill="#618287" p-id="2926"></path><path d="M573.439971 143.359993c11.315199 0 20.479999-9.1648 20.479999-20.479999s-9.1648-20.479999-20.479999-20.479999c-185.062391 0-336.435183 145.239033-347.120622 327.679983h40.959998C277.898226 270.238706 410.961899 143.359993 573.439971 143.359993z" fill="#A9C7D8" p-id="2927"></path><path d="M450.559977 696.319965h-20.479999v-61.439997h-40.959997v81.919996c0 8.16128 4.8384 15.063039 11.740159 18.360319l35.717118-33.341438A20.505599 20.505599 0 0 1 450.559977 696.319965zM716.799964 696.319965h-20.479999c5.18144 0 10.178559 1.96096 13.977599 5.49888l35.722239 33.341438c6.90176-3.29728 11.740159-10.199039 11.740159-18.360319v-81.919996h-40.959998v61.439997z" fill="#535353" p-id="2928"></path><path d="M696.319965 696.319965h20.479999v-61.439997h-61.439997v61.439997zM532.479973 634.879968h81.919996v61.439997h-81.919996zM450.559977 696.319965h40.959998v-61.439997H430.079978v61.439997z" fill="#E06C3E" p-id="2929"></path><path d="M491.519975 634.879968h40.959998v61.439997h-40.959998zM614.399969 634.879968h40.959998v61.439997h-40.959998z" fill="#535353" p-id="2930"></path><path d="M1044.618188 430.079978H102.261755C45.875198 430.079978 0 476.021736 0 532.479973s45.875198 102.399995 102.261755 102.399995H1044.618188C1101.004745 634.879968 1146.879943 588.938211 1146.879943 532.479973s-45.875198-102.399995-102.261755-102.399995zM696.319965 552.959972h-81.919996v-40.959998h81.919996v40.959998z m-163.839992 0H450.559977v-40.959998h81.919996v40.959998z m-327.679983 0H122.879994v-40.959998h81.919996v40.959998z m163.839992 0H286.719986v-40.959998h81.919996v40.959998z m491.519975 0h-81.919996v-40.959998h81.919996v40.959998z m163.839992 0h-81.919996v-40.959998h81.919996v40.959998z" fill="#D8F768" p-id="2931"></path><path d="M696.319965 696.319965H450.559977a20.505599 20.505599 0 0 0-13.977599 5.49888l-35.722238 33.341438-271.482866 253.378548a20.531199 20.531199 0 0 0-5.07904 22.502398A20.500479 20.500479 0 0 0 143.359993 1023.999949h860.159957a20.500479 20.500479 0 0 0 19.061759-12.95872 20.531199 20.531199 0 0 0-5.08416-22.502398l-271.477746-253.378548-35.722239-33.341438A20.505599 20.505599 0 0 0 696.319965 696.319965z" fill="#FFE9E1" p-id="2932"></path><path d="M122.879994 511.999974h81.919996v40.959998H122.879994zM942.079953 511.999974h81.919996v40.959998h-81.919996zM778.239961 511.999974h81.919996v40.959998h-81.919996zM614.399969 511.999974h81.919996v40.959998h-81.919996zM450.559977 511.999974h81.919996v40.959998H450.559977zM286.719986 511.999974h81.919996v40.959998H286.719986z" fill="#3BABB7" p-id="2933"></path></svg>